<mxfile host="Electron" modified="2023-06-27T09:50:51.217Z" agent="Mozilla/5.0 (Windows NT 10.0; Win64; x64) AppleWebKit/537.36 (KHTML, like Gecko) draw.io/21.2.8 Chrome/112.0.5615.165 Electron/24.2.0 Safari/537.36" etag="FZdvYHv9_i0kQI7XiL6L" version="21.2.8" type="device" pages="2">
  <diagram id="ibktNPGaXgMTfW-UlvfO" name="Page-1">
    <mxGraphModel dx="975" dy="630" grid="1" gridSize="10" guides="1" tooltips="1" connect="1" arrows="1" fold="1" page="1" pageScale="1" pageWidth="850" pageHeight="1100" math="0" shadow="0">
      <root>
        <mxCell id="0" />
        <mxCell id="1" parent="0" />
        <mxCell id="rxpgMSGp2kmZ1DqLNpXi-1" value="" style="strokeWidth=1;shadow=0;dashed=0;align=center;html=1;shape=mxgraph.mockup.containers.browserWindow;rSize=0;strokeColor=#666666;strokeColor2=#008cff;strokeColor3=#c4c4c4;mainText=,;recursiveResize=0;" parent="1" vertex="1">
          <mxGeometry x="40" y="40" width="720" height="480" as="geometry" />
        </mxCell>
        <mxCell id="rxpgMSGp2kmZ1DqLNpXi-2" value="" style="strokeWidth=1;shadow=0;dashed=0;align=center;html=1;shape=mxgraph.mockup.containers.anchor;fontSize=17;fontColor=#666666;align=left;whiteSpace=wrap;" parent="rxpgMSGp2kmZ1DqLNpXi-1" vertex="1">
          <mxGeometry x="60" y="12" width="110" height="26" as="geometry" />
        </mxCell>
        <mxCell id="rxpgMSGp2kmZ1DqLNpXi-3" value="https://www.kairos.com" style="strokeWidth=1;shadow=0;dashed=0;align=center;html=1;shape=mxgraph.mockup.containers.anchor;rSize=0;fontSize=17;fontColor=#666666;align=left;" parent="rxpgMSGp2kmZ1DqLNpXi-1" vertex="1">
          <mxGeometry x="130" y="60" width="250" height="26" as="geometry" />
        </mxCell>
        <mxCell id="Tg31Ld30e4aivNdz2N5G-1" value="&lt;font color=&quot;#ff0000&quot; style=&quot;font-size: 49px;&quot;&gt;&lt;b style=&quot;font-size: 49px;&quot;&gt;Kairos&lt;/b&gt;&lt;/font&gt;" style="text;html=1;strokeColor=none;fillColor=none;align=center;verticalAlign=middle;whiteSpace=wrap;rounded=0;fontSize=49;" parent="rxpgMSGp2kmZ1DqLNpXi-1" vertex="1">
          <mxGeometry x="240" y="130" width="240" height="30" as="geometry" />
        </mxCell>
        <mxCell id="Tg31Ld30e4aivNdz2N5G-2" value="" style="shadow=0;dashed=0;html=1;strokeColor=none;fillColor=#4495D1;labelPosition=center;verticalLabelPosition=bottom;verticalAlign=top;align=center;outlineConnect=0;shape=mxgraph.veeam.portal_admin;" parent="rxpgMSGp2kmZ1DqLNpXi-1" vertex="1">
          <mxGeometry x="200" y="223.4" width="60" height="54.4" as="geometry" />
        </mxCell>
        <mxCell id="Tg31Ld30e4aivNdz2N5G-3" value="" style="sketch=0;outlineConnect=0;fontColor=#232F3E;gradientColor=none;strokeColor=#232F3E;fillColor=#ffffff;dashed=0;verticalLabelPosition=bottom;verticalAlign=top;align=center;html=1;fontSize=12;fontStyle=0;aspect=fixed;shape=mxgraph.aws4.resourceIcon;resIcon=mxgraph.aws4.user;" parent="rxpgMSGp2kmZ1DqLNpXi-1" vertex="1">
          <mxGeometry x="440" y="213.4" width="64.4" height="64.4" as="geometry" />
        </mxCell>
        <mxCell id="Tg31Ld30e4aivNdz2N5G-6" value="Admin" style="html=1;shadow=0;dashed=0;shape=mxgraph.bootstrap.rrect;rSize=5;strokeColor=none;strokeWidth=1;fillColor=#1CA5B8;fontColor=#FFFFFF;whiteSpace=wrap;align=center;verticalAlign=middle;spacingLeft=0;fontStyle=1;fontSize=14;spacing=5;" parent="rxpgMSGp2kmZ1DqLNpXi-1" vertex="1">
          <mxGeometry x="200" y="290" width="60" height="30" as="geometry" />
        </mxCell>
        <mxCell id="Tg31Ld30e4aivNdz2N5G-14" value="User" style="html=1;shadow=0;dashed=0;shape=mxgraph.bootstrap.rrect;rSize=5;strokeColor=none;strokeWidth=1;fillColor=#1CA5B8;fontColor=#FFFFFF;whiteSpace=wrap;align=center;verticalAlign=middle;spacingLeft=0;fontStyle=1;fontSize=14;spacing=5;" parent="rxpgMSGp2kmZ1DqLNpXi-1" vertex="1">
          <mxGeometry x="444.4" y="290" width="60" height="30" as="geometry" />
        </mxCell>
        <mxCell id="Tg31Ld30e4aivNdz2N5G-15" value="" style="strokeWidth=1;shadow=0;dashed=0;align=center;html=1;shape=mxgraph.mockup.containers.browserWindow;rSize=0;strokeColor=#666666;strokeColor2=#008cff;strokeColor3=#c4c4c4;mainText=,;recursiveResize=0;" parent="1" vertex="1">
          <mxGeometry x="40" y="540" width="720" height="510" as="geometry" />
        </mxCell>
        <mxCell id="Tg31Ld30e4aivNdz2N5G-16" value="" style="strokeWidth=1;shadow=0;dashed=0;align=center;html=1;shape=mxgraph.mockup.containers.anchor;fontSize=17;fontColor=#666666;align=left;whiteSpace=wrap;" parent="Tg31Ld30e4aivNdz2N5G-15" vertex="1">
          <mxGeometry x="60" y="12" width="110" height="26" as="geometry" />
        </mxCell>
        <mxCell id="Tg31Ld30e4aivNdz2N5G-17" value="https://www.kairos/adminlogin" style="strokeWidth=1;shadow=0;dashed=0;align=center;html=1;shape=mxgraph.mockup.containers.anchor;rSize=0;fontSize=17;fontColor=#666666;align=left;" parent="Tg31Ld30e4aivNdz2N5G-15" vertex="1">
          <mxGeometry x="130" y="60" width="250" height="26" as="geometry" />
        </mxCell>
        <mxCell id="Tg31Ld30e4aivNdz2N5G-18" value="&lt;font color=&quot;#ff0000&quot; style=&quot;font-size: 49px;&quot;&gt;&lt;b style=&quot;font-size: 49px;&quot;&gt;Kairos&lt;/b&gt;&lt;/font&gt;" style="text;html=1;strokeColor=none;fillColor=none;align=center;verticalAlign=middle;whiteSpace=wrap;rounded=0;fontSize=49;" parent="Tg31Ld30e4aivNdz2N5G-15" vertex="1">
          <mxGeometry x="240" y="130" width="240" height="30" as="geometry" />
        </mxCell>
        <mxCell id="BLIg0-8RMYQzDBOm43ed-2" value="" style="strokeWidth=1;shadow=0;dashed=0;align=center;html=1;shape=mxgraph.mockup.forms.rrect;rSize=0;strokeColor=#999999;fillColor=#ffffff;" parent="Tg31Ld30e4aivNdz2N5G-15" vertex="1">
          <mxGeometry x="280" y="190" width="200" height="300" as="geometry" />
        </mxCell>
        <mxCell id="BLIg0-8RMYQzDBOm43ed-3" value="Sign In" style="strokeWidth=1;shadow=0;dashed=0;align=center;html=1;shape=mxgraph.mockup.forms.anchor;fontSize=12;fontColor=#666666;align=left;resizeWidth=1;spacingLeft=0;" parent="BLIg0-8RMYQzDBOm43ed-2" vertex="1">
          <mxGeometry width="100" height="20" relative="1" as="geometry">
            <mxPoint x="10" y="10" as="offset" />
          </mxGeometry>
        </mxCell>
        <mxCell id="BLIg0-8RMYQzDBOm43ed-4" value="" style="shape=line;strokeColor=#ddeeff;strokeWidth=2;html=1;resizeWidth=1;" parent="BLIg0-8RMYQzDBOm43ed-2" vertex="1">
          <mxGeometry width="180" height="10" relative="1" as="geometry">
            <mxPoint x="10" y="30" as="offset" />
          </mxGeometry>
        </mxCell>
        <mxCell id="BLIg0-8RMYQzDBOm43ed-5" value="Admin" style="strokeWidth=1;shadow=0;dashed=0;align=center;html=1;shape=mxgraph.mockup.forms.anchor;fontSize=12;fontColor=#666666;align=left;resizeWidth=1;spacingLeft=0;" parent="BLIg0-8RMYQzDBOm43ed-2" vertex="1">
          <mxGeometry width="100" height="20" relative="1" as="geometry">
            <mxPoint x="10" y="40" as="offset" />
          </mxGeometry>
        </mxCell>
        <mxCell id="BLIg0-8RMYQzDBOm43ed-6" value="johndoe" style="strokeWidth=1;shadow=0;dashed=0;align=center;html=1;shape=mxgraph.mockup.forms.rrect;rSize=0;strokeColor=#999999;fontColor=#666666;align=left;spacingLeft=5;resizeWidth=1;" parent="BLIg0-8RMYQzDBOm43ed-2" vertex="1">
          <mxGeometry width="150" height="25" relative="1" as="geometry">
            <mxPoint x="10" y="60" as="offset" />
          </mxGeometry>
        </mxCell>
        <mxCell id="BLIg0-8RMYQzDBOm43ed-7" value="Password:" style="strokeWidth=1;shadow=0;dashed=0;align=center;html=1;shape=mxgraph.mockup.forms.anchor;fontSize=12;fontColor=#666666;align=left;resizeWidth=1;spacingLeft=0;" parent="BLIg0-8RMYQzDBOm43ed-2" vertex="1">
          <mxGeometry width="100" height="20" relative="1" as="geometry">
            <mxPoint x="10" y="95" as="offset" />
          </mxGeometry>
        </mxCell>
        <mxCell id="BLIg0-8RMYQzDBOm43ed-8" value="********" style="strokeWidth=1;shadow=0;dashed=0;align=center;html=1;shape=mxgraph.mockup.forms.rrect;rSize=0;strokeColor=#999999;fontColor=#666666;align=left;spacingLeft=5;resizeWidth=1;" parent="BLIg0-8RMYQzDBOm43ed-2" vertex="1">
          <mxGeometry width="150" height="25" relative="1" as="geometry">
            <mxPoint x="10" y="115" as="offset" />
          </mxGeometry>
        </mxCell>
        <mxCell id="BLIg0-8RMYQzDBOm43ed-9" value="SIGN IN" style="strokeWidth=1;shadow=0;dashed=0;align=center;html=1;shape=mxgraph.mockup.forms.rrect;rSize=5;strokeColor=none;fontColor=#ffffff;fillColor=#66bbff;fontSize=16;fontStyle=1;" parent="BLIg0-8RMYQzDBOm43ed-2" vertex="1">
          <mxGeometry y="1" width="80" height="30" relative="1" as="geometry">
            <mxPoint x="20" y="-150" as="offset" />
          </mxGeometry>
        </mxCell>
        <mxCell id="BLIg0-8RMYQzDBOm43ed-10" value="Forgot Password?" style="strokeWidth=1;shadow=0;dashed=0;align=center;html=1;shape=mxgraph.mockup.forms.anchor;fontSize=12;fontColor=#9999ff;align=left;spacingLeft=0;fontStyle=4;resizeWidth=1;" parent="BLIg0-8RMYQzDBOm43ed-2" vertex="1">
          <mxGeometry y="1" width="150" height="20" relative="1" as="geometry">
            <mxPoint x="10" y="-110" as="offset" />
          </mxGeometry>
        </mxCell>
        <mxCell id="BLIg0-8RMYQzDBOm43ed-11" value="" style="shape=line;strokeColor=#ddeeff;strokeWidth=2;html=1;resizeWidth=1;" parent="BLIg0-8RMYQzDBOm43ed-2" vertex="1">
          <mxGeometry y="1" width="180" height="10" relative="1" as="geometry">
            <mxPoint x="10" y="-90" as="offset" />
          </mxGeometry>
        </mxCell>
        <mxCell id="BLIg0-8RMYQzDBOm43ed-12" value="" style="strokeWidth=1;shadow=0;dashed=0;align=center;html=1;shape=mxgraph.mockup.forms.anchor;fontSize=12;fontColor=#666666;align=left;spacingLeft=0;resizeWidth=1;" parent="BLIg0-8RMYQzDBOm43ed-2" vertex="1">
          <mxGeometry y="1" width="150" height="20" relative="1" as="geometry">
            <mxPoint x="10" y="-70" as="offset" />
          </mxGeometry>
        </mxCell>
        <mxCell id="BLIg0-8RMYQzDBOm43ed-14" value="" style="strokeWidth=1;shadow=0;dashed=0;align=center;html=1;shape=mxgraph.mockup.containers.browserWindow;rSize=0;strokeColor=#666666;strokeColor2=#008cff;strokeColor3=#c4c4c4;mainText=,;recursiveResize=0;" parent="1" vertex="1">
          <mxGeometry x="40" y="1080" width="720" height="510" as="geometry" />
        </mxCell>
        <mxCell id="BLIg0-8RMYQzDBOm43ed-15" value="" style="strokeWidth=1;shadow=0;dashed=0;align=center;html=1;shape=mxgraph.mockup.containers.anchor;fontSize=17;fontColor=#666666;align=left;whiteSpace=wrap;" parent="BLIg0-8RMYQzDBOm43ed-14" vertex="1">
          <mxGeometry x="60" y="12" width="110" height="26" as="geometry" />
        </mxCell>
        <mxCell id="BLIg0-8RMYQzDBOm43ed-16" value="https://www.kairos/userlogin" style="strokeWidth=1;shadow=0;dashed=0;align=center;html=1;shape=mxgraph.mockup.containers.anchor;rSize=0;fontSize=17;fontColor=#666666;align=left;" parent="BLIg0-8RMYQzDBOm43ed-14" vertex="1">
          <mxGeometry x="130" y="60" width="250" height="26" as="geometry" />
        </mxCell>
        <mxCell id="BLIg0-8RMYQzDBOm43ed-17" value="&lt;font color=&quot;#ff0000&quot; style=&quot;font-size: 49px;&quot;&gt;&lt;b style=&quot;font-size: 49px;&quot;&gt;Kairos&lt;/b&gt;&lt;/font&gt;" style="text;html=1;strokeColor=none;fillColor=none;align=center;verticalAlign=middle;whiteSpace=wrap;rounded=0;fontSize=49;" parent="BLIg0-8RMYQzDBOm43ed-14" vertex="1">
          <mxGeometry x="240" y="130" width="240" height="30" as="geometry" />
        </mxCell>
        <mxCell id="BLIg0-8RMYQzDBOm43ed-29" value="" style="strokeWidth=1;shadow=0;dashed=0;align=center;html=1;shape=mxgraph.mockup.forms.rrect;rSize=0;strokeColor=#999999;fillColor=#ffffff;" parent="BLIg0-8RMYQzDBOm43ed-14" vertex="1">
          <mxGeometry x="260" y="190" width="200" height="300" as="geometry" />
        </mxCell>
        <mxCell id="BLIg0-8RMYQzDBOm43ed-30" value="Sign In" style="strokeWidth=1;shadow=0;dashed=0;align=center;html=1;shape=mxgraph.mockup.forms.anchor;fontSize=12;fontColor=#666666;align=left;resizeWidth=1;spacingLeft=0;" parent="BLIg0-8RMYQzDBOm43ed-29" vertex="1">
          <mxGeometry width="100" height="20" relative="1" as="geometry">
            <mxPoint x="10" y="10" as="offset" />
          </mxGeometry>
        </mxCell>
        <mxCell id="BLIg0-8RMYQzDBOm43ed-31" value="" style="shape=line;strokeColor=#ddeeff;strokeWidth=2;html=1;resizeWidth=1;" parent="BLIg0-8RMYQzDBOm43ed-29" vertex="1">
          <mxGeometry width="180" height="10" relative="1" as="geometry">
            <mxPoint x="10" y="30" as="offset" />
          </mxGeometry>
        </mxCell>
        <mxCell id="BLIg0-8RMYQzDBOm43ed-32" value="User Name:" style="strokeWidth=1;shadow=0;dashed=0;align=center;html=1;shape=mxgraph.mockup.forms.anchor;fontSize=12;fontColor=#666666;align=left;resizeWidth=1;spacingLeft=0;" parent="BLIg0-8RMYQzDBOm43ed-29" vertex="1">
          <mxGeometry width="100" height="20" relative="1" as="geometry">
            <mxPoint x="10" y="40" as="offset" />
          </mxGeometry>
        </mxCell>
        <mxCell id="BLIg0-8RMYQzDBOm43ed-33" value="johndoe" style="strokeWidth=1;shadow=0;dashed=0;align=center;html=1;shape=mxgraph.mockup.forms.rrect;rSize=0;strokeColor=#999999;fontColor=#666666;align=left;spacingLeft=5;resizeWidth=1;" parent="BLIg0-8RMYQzDBOm43ed-29" vertex="1">
          <mxGeometry width="150" height="25" relative="1" as="geometry">
            <mxPoint x="10" y="60" as="offset" />
          </mxGeometry>
        </mxCell>
        <mxCell id="BLIg0-8RMYQzDBOm43ed-34" value="Password:" style="strokeWidth=1;shadow=0;dashed=0;align=center;html=1;shape=mxgraph.mockup.forms.anchor;fontSize=12;fontColor=#666666;align=left;resizeWidth=1;spacingLeft=0;" parent="BLIg0-8RMYQzDBOm43ed-29" vertex="1">
          <mxGeometry width="100" height="20" relative="1" as="geometry">
            <mxPoint x="10" y="95" as="offset" />
          </mxGeometry>
        </mxCell>
        <mxCell id="BLIg0-8RMYQzDBOm43ed-35" value="********" style="strokeWidth=1;shadow=0;dashed=0;align=center;html=1;shape=mxgraph.mockup.forms.rrect;rSize=0;strokeColor=#999999;fontColor=#666666;align=left;spacingLeft=5;resizeWidth=1;" parent="BLIg0-8RMYQzDBOm43ed-29" vertex="1">
          <mxGeometry width="150" height="25" relative="1" as="geometry">
            <mxPoint x="10" y="115" as="offset" />
          </mxGeometry>
        </mxCell>
        <mxCell id="BLIg0-8RMYQzDBOm43ed-36" value="SIGN IN" style="strokeWidth=1;shadow=0;dashed=0;align=center;html=1;shape=mxgraph.mockup.forms.rrect;rSize=5;strokeColor=none;fontColor=#ffffff;fillColor=#66bbff;fontSize=16;fontStyle=1;" parent="BLIg0-8RMYQzDBOm43ed-29" vertex="1">
          <mxGeometry y="1" width="80" height="30" relative="1" as="geometry">
            <mxPoint x="20" y="-150" as="offset" />
          </mxGeometry>
        </mxCell>
        <mxCell id="BLIg0-8RMYQzDBOm43ed-37" value="Forgot Password?" style="strokeWidth=1;shadow=0;dashed=0;align=center;html=1;shape=mxgraph.mockup.forms.anchor;fontSize=12;fontColor=#9999ff;align=left;spacingLeft=0;fontStyle=4;resizeWidth=1;" parent="BLIg0-8RMYQzDBOm43ed-29" vertex="1">
          <mxGeometry y="1" width="150" height="20" relative="1" as="geometry">
            <mxPoint x="10" y="-110" as="offset" />
          </mxGeometry>
        </mxCell>
        <mxCell id="BLIg0-8RMYQzDBOm43ed-38" value="" style="shape=line;strokeColor=#ddeeff;strokeWidth=2;html=1;resizeWidth=1;" parent="BLIg0-8RMYQzDBOm43ed-29" vertex="1">
          <mxGeometry y="1" width="180" height="10" relative="1" as="geometry">
            <mxPoint x="10" y="-90" as="offset" />
          </mxGeometry>
        </mxCell>
        <mxCell id="BLIg0-8RMYQzDBOm43ed-39" value="New User" style="strokeWidth=1;shadow=0;dashed=0;align=center;html=1;shape=mxgraph.mockup.forms.anchor;fontSize=12;fontColor=#666666;align=left;spacingLeft=0;resizeWidth=1;" parent="BLIg0-8RMYQzDBOm43ed-29" vertex="1">
          <mxGeometry y="1" width="150" height="20" relative="1" as="geometry">
            <mxPoint x="10" y="-70" as="offset" />
          </mxGeometry>
        </mxCell>
        <mxCell id="BLIg0-8RMYQzDBOm43ed-40" value="SIGN UP" style="strokeWidth=1;shadow=0;dashed=0;align=center;html=1;shape=mxgraph.mockup.forms.rrect;rSize=5;strokeColor=none;fontColor=#ffffff;fillColor=#66bbff;fontSize=16;fontStyle=1;" parent="BLIg0-8RMYQzDBOm43ed-29" vertex="1">
          <mxGeometry y="1" width="80" height="30" relative="1" as="geometry">
            <mxPoint x="20" y="-50" as="offset" />
          </mxGeometry>
        </mxCell>
        <mxCell id="26x5zPvNkr5hExDa1kRO-18" value="" style="strokeWidth=1;shadow=0;dashed=0;align=center;html=1;shape=mxgraph.mockup.containers.browserWindow;rSize=0;strokeColor=#666666;strokeColor2=#008cff;strokeColor3=#c4c4c4;mainText=,;recursiveResize=0;" parent="1" vertex="1">
          <mxGeometry x="40" y="1650" width="720" height="510" as="geometry" />
        </mxCell>
        <mxCell id="26x5zPvNkr5hExDa1kRO-19" value="" style="strokeWidth=1;shadow=0;dashed=0;align=center;html=1;shape=mxgraph.mockup.containers.anchor;fontSize=17;fontColor=#666666;align=left;whiteSpace=wrap;" parent="26x5zPvNkr5hExDa1kRO-18" vertex="1">
          <mxGeometry x="60" y="12" width="110" height="26" as="geometry" />
        </mxCell>
        <mxCell id="26x5zPvNkr5hExDa1kRO-20" value="https://www.kairos/events" style="strokeWidth=1;shadow=0;dashed=0;align=center;html=1;shape=mxgraph.mockup.containers.anchor;rSize=0;fontSize=17;fontColor=#666666;align=left;" parent="26x5zPvNkr5hExDa1kRO-18" vertex="1">
          <mxGeometry x="130" y="60" width="250" height="26" as="geometry" />
        </mxCell>
        <mxCell id="vumLknr2HT4GY78qT5In-1" value="All Events" style="html=1;shadow=0;dashed=0;shape=mxgraph.bootstrap.rrect;rSize=5;strokeColor=none;strokeWidth=1;fillColor=#6C767D;fontColor=#FFFFFF;whiteSpace=wrap;align=center;verticalAlign=middle;spacingLeft=10;fontStyle=1;fontSize=18;" parent="26x5zPvNkr5hExDa1kRO-18" vertex="1">
          <mxGeometry x="70" y="240" width="160" height="100" as="geometry" />
        </mxCell>
        <mxCell id="vumLknr2HT4GY78qT5In-7" value="Pending Events" style="html=1;shadow=0;dashed=0;shape=mxgraph.bootstrap.rrect;rSize=5;strokeColor=none;strokeWidth=1;fillColor=#6C767D;fontColor=#FFFFFF;whiteSpace=wrap;align=center;verticalAlign=middle;spacingLeft=10;fontStyle=1;fontSize=18;" parent="26x5zPvNkr5hExDa1kRO-18" vertex="1">
          <mxGeometry x="285" y="400" width="160" height="100" as="geometry" />
        </mxCell>
        <mxCell id="vumLknr2HT4GY78qT5In-8" value="Completed Events" style="html=1;shadow=0;dashed=0;shape=mxgraph.bootstrap.rrect;rSize=5;strokeColor=none;strokeWidth=1;fillColor=#6C767D;fontColor=#FFFFFF;whiteSpace=wrap;align=center;verticalAlign=middle;spacingLeft=10;fontStyle=1;fontSize=18;" parent="26x5zPvNkr5hExDa1kRO-18" vertex="1">
          <mxGeometry x="480" y="230" width="160" height="100" as="geometry" />
        </mxCell>
        <mxCell id="m1VotmkJFfEsbOCTaZbm-1" value="Events" style="html=1;shadow=0;dashed=0;fillColor=#0085FC;strokeColor=none;fontSize=16;fontColor=#ffffff;align=left;spacing=15;" parent="26x5zPvNkr5hExDa1kRO-18" vertex="1">
          <mxGeometry y="110" width="720" height="40" as="geometry" />
        </mxCell>
        <mxCell id="m1VotmkJFfEsbOCTaZbm-2" value="Reminder" style="fillColor=none;strokeColor=none;fontSize=14;fontColor=#ffffff;align=center;" parent="m1VotmkJFfEsbOCTaZbm-1" vertex="1">
          <mxGeometry width="70" height="40" relative="1" as="geometry">
            <mxPoint x="70" as="offset" />
          </mxGeometry>
        </mxCell>
        <mxCell id="m1VotmkJFfEsbOCTaZbm-3" value="Settings" style="fillColor=none;strokeColor=none;fontSize=14;fontColor=#FFFFFF;align=center;" parent="m1VotmkJFfEsbOCTaZbm-1" vertex="1">
          <mxGeometry width="70" height="40" relative="1" as="geometry">
            <mxPoint x="140" as="offset" />
          </mxGeometry>
        </mxCell>
        <mxCell id="m1VotmkJFfEsbOCTaZbm-6" value="Search" style="html=1;shadow=0;dashed=0;shape=mxgraph.bootstrap.rrect;rSize=5;fontSize=14;fontColor=#ffffff;strokeColor=#ffffff;fillColor=none;" parent="m1VotmkJFfEsbOCTaZbm-1" vertex="1">
          <mxGeometry x="1" width="70" height="20" relative="1" as="geometry">
            <mxPoint x="-80" y="10" as="offset" />
          </mxGeometry>
        </mxCell>
        <mxCell id="m1VotmkJFfEsbOCTaZbm-7" value="Search" style="html=1;shadow=0;dashed=0;shape=mxgraph.bootstrap.rrect;rSize=5;fontSize=14;fontColor=#6C767D;strokeColor=#CED4DA;fillColor=#ffffff;align=left;spacing=10;" parent="m1VotmkJFfEsbOCTaZbm-1" vertex="1">
          <mxGeometry x="1" width="180" height="20" relative="1" as="geometry">
            <mxPoint x="-270" y="10" as="offset" />
          </mxGeometry>
        </mxCell>
        <mxCell id="S-ixvHY4IE7yWT_5fdbT-1" value="&lt;font style=&quot;font-size: 46px;&quot; color=&quot;#ff0000&quot;&gt;&lt;b&gt;Events&lt;/b&gt;&lt;/font&gt;" style="text;html=1;strokeColor=none;fillColor=none;align=center;verticalAlign=middle;whiteSpace=wrap;rounded=0;" parent="26x5zPvNkr5hExDa1kRO-18" vertex="1">
          <mxGeometry x="300" y="170" width="130" height="50" as="geometry" />
        </mxCell>
        <mxCell id="S-ixvHY4IE7yWT_5fdbT-3" value="Profile" style="sketch=0;outlineConnect=0;fontColor=#232F3E;gradientColor=none;strokeColor=#232F3E;fillColor=#ffffff;dashed=0;verticalLabelPosition=bottom;verticalAlign=top;align=center;html=1;fontSize=12;fontStyle=0;aspect=fixed;shape=mxgraph.aws4.resourceIcon;resIcon=mxgraph.aws4.user;" parent="26x5zPvNkr5hExDa1kRO-18" vertex="1">
          <mxGeometry x="660" y="150" width="60" height="60" as="geometry" />
        </mxCell>
      </root>
    </mxGraphModel>
  </diagram>
  <diagram id="wBKfYEWXOi5TGwdZi1mZ" name="Page-2">
    <mxGraphModel dx="1950" dy="160" grid="1" gridSize="10" guides="1" tooltips="1" connect="1" arrows="1" fold="1" page="1" pageScale="1" pageWidth="850" pageHeight="1100" math="0" shadow="0">
      <root>
        <mxCell id="0" />
        <mxCell id="1" parent="0" />
        <mxCell id="C3xrvQj1xHjVhDmOcLrF-1" value="" style="strokeWidth=1;shadow=0;dashed=0;align=center;html=1;shape=mxgraph.mockup.containers.browserWindow;rSize=0;strokeColor=#666666;strokeColor2=#008cff;strokeColor3=#c4c4c4;mainText=,;recursiveResize=0;" parent="1" vertex="1">
          <mxGeometry x="40" y="1160" width="720" height="510" as="geometry" />
        </mxCell>
        <mxCell id="C3xrvQj1xHjVhDmOcLrF-2" value="" style="strokeWidth=1;shadow=0;dashed=0;align=center;html=1;shape=mxgraph.mockup.containers.anchor;fontSize=17;fontColor=#666666;align=left;whiteSpace=wrap;" parent="C3xrvQj1xHjVhDmOcLrF-1" vertex="1">
          <mxGeometry x="60" y="12" width="110" height="26" as="geometry" />
        </mxCell>
        <mxCell id="C3xrvQj1xHjVhDmOcLrF-3" value="https://www.kairos/events/allevents" style="strokeWidth=1;shadow=0;dashed=0;align=center;html=1;shape=mxgraph.mockup.containers.anchor;rSize=0;fontSize=17;fontColor=#666666;align=left;" parent="C3xrvQj1xHjVhDmOcLrF-1" vertex="1">
          <mxGeometry x="130" y="60" width="250" height="26" as="geometry" />
        </mxCell>
        <mxCell id="C3xrvQj1xHjVhDmOcLrF-4" value="Event1" style="html=1;shadow=0;dashed=0;shape=mxgraph.bootstrap.rrect;rSize=5;strokeColor=none;strokeWidth=1;fillColor=#6C767D;fontColor=#FFFFFF;whiteSpace=wrap;align=center;verticalAlign=middle;spacingLeft=10;fontStyle=1;fontSize=18;" parent="C3xrvQj1xHjVhDmOcLrF-1" vertex="1">
          <mxGeometry x="90" y="240" width="160" height="100" as="geometry" />
        </mxCell>
        <mxCell id="C3xrvQj1xHjVhDmOcLrF-5" value="Event3" style="html=1;shadow=0;dashed=0;shape=mxgraph.bootstrap.rrect;rSize=5;strokeColor=none;strokeWidth=1;fillColor=#6C767D;fontColor=#FFFFFF;whiteSpace=wrap;align=center;verticalAlign=middle;spacingLeft=10;fontStyle=1;fontSize=18;" parent="C3xrvQj1xHjVhDmOcLrF-1" vertex="1">
          <mxGeometry x="90" y="380" width="160" height="100" as="geometry" />
        </mxCell>
        <mxCell id="C3xrvQj1xHjVhDmOcLrF-6" value="Event2" style="html=1;shadow=0;dashed=0;shape=mxgraph.bootstrap.rrect;rSize=5;strokeColor=none;strokeWidth=1;fillColor=#6C767D;fontColor=#FFFFFF;whiteSpace=wrap;align=center;verticalAlign=middle;spacingLeft=10;fontStyle=1;fontSize=18;" parent="C3xrvQj1xHjVhDmOcLrF-1" vertex="1">
          <mxGeometry x="470" y="230" width="160" height="100" as="geometry" />
        </mxCell>
        <mxCell id="C3xrvQj1xHjVhDmOcLrF-7" value="Events" style="html=1;shadow=0;dashed=0;fillColor=#0085FC;strokeColor=none;fontSize=16;fontColor=#ffffff;align=left;spacing=15;" parent="C3xrvQj1xHjVhDmOcLrF-1" vertex="1">
          <mxGeometry y="110" width="720" height="40" as="geometry" />
        </mxCell>
        <mxCell id="C3xrvQj1xHjVhDmOcLrF-8" value="Reminder" style="fillColor=none;strokeColor=none;fontSize=14;fontColor=#ffffff;align=center;" parent="C3xrvQj1xHjVhDmOcLrF-7" vertex="1">
          <mxGeometry width="70" height="40" relative="1" as="geometry">
            <mxPoint x="70" as="offset" />
          </mxGeometry>
        </mxCell>
        <mxCell id="C3xrvQj1xHjVhDmOcLrF-9" value="Settings" style="fillColor=none;strokeColor=none;fontSize=14;fontColor=#FFFFFF;align=center;" parent="C3xrvQj1xHjVhDmOcLrF-7" vertex="1">
          <mxGeometry width="70" height="40" relative="1" as="geometry">
            <mxPoint x="140" as="offset" />
          </mxGeometry>
        </mxCell>
        <mxCell id="C3xrvQj1xHjVhDmOcLrF-10" value="About" style="fillColor=none;strokeColor=none;fontSize=14;fontColor=#79BFFD;align=center;" parent="C3xrvQj1xHjVhDmOcLrF-7" vertex="1">
          <mxGeometry width="80" height="40" relative="1" as="geometry">
            <mxPoint x="270" as="offset" />
          </mxGeometry>
        </mxCell>
        <mxCell id="C3xrvQj1xHjVhDmOcLrF-11" value="Search" style="html=1;shadow=0;dashed=0;shape=mxgraph.bootstrap.rrect;rSize=5;fontSize=14;fontColor=#ffffff;strokeColor=#ffffff;fillColor=none;" parent="C3xrvQj1xHjVhDmOcLrF-7" vertex="1">
          <mxGeometry x="1" width="70" height="20" relative="1" as="geometry">
            <mxPoint x="-80" y="10" as="offset" />
          </mxGeometry>
        </mxCell>
        <mxCell id="C3xrvQj1xHjVhDmOcLrF-12" value="Search" style="html=1;shadow=0;dashed=0;shape=mxgraph.bootstrap.rrect;rSize=5;fontSize=14;fontColor=#6C767D;strokeColor=#CED4DA;fillColor=#ffffff;align=left;spacing=10;" parent="C3xrvQj1xHjVhDmOcLrF-7" vertex="1">
          <mxGeometry x="1" width="180" height="20" relative="1" as="geometry">
            <mxPoint x="-270" y="10" as="offset" />
          </mxGeometry>
        </mxCell>
        <mxCell id="C3xrvQj1xHjVhDmOcLrF-13" value="&lt;font style=&quot;font-size: 46px;&quot; color=&quot;#ff0000&quot;&gt;&lt;b&gt;All Events&lt;/b&gt;&lt;/font&gt;" style="text;html=1;strokeColor=none;fillColor=none;align=center;verticalAlign=middle;whiteSpace=wrap;rounded=0;" parent="C3xrvQj1xHjVhDmOcLrF-1" vertex="1">
          <mxGeometry x="240" y="170" width="240" height="50" as="geometry" />
        </mxCell>
        <mxCell id="C3xrvQj1xHjVhDmOcLrF-14" value="Profile" style="sketch=0;outlineConnect=0;fontColor=#232F3E;gradientColor=none;strokeColor=#232F3E;fillColor=#ffffff;dashed=0;verticalLabelPosition=bottom;verticalAlign=top;align=center;html=1;fontSize=12;fontStyle=0;aspect=fixed;shape=mxgraph.aws4.resourceIcon;resIcon=mxgraph.aws4.user;" parent="C3xrvQj1xHjVhDmOcLrF-1" vertex="1">
          <mxGeometry x="660" y="150" width="60" height="60" as="geometry" />
        </mxCell>
        <mxCell id="i93lW0s2He4yfLlkjzG1-1" value="Event4" style="html=1;shadow=0;dashed=0;shape=mxgraph.bootstrap.rrect;rSize=5;strokeColor=none;strokeWidth=1;fillColor=#6C767D;fontColor=#FFFFFF;whiteSpace=wrap;align=center;verticalAlign=middle;spacingLeft=10;fontStyle=1;fontSize=18;" parent="C3xrvQj1xHjVhDmOcLrF-1" vertex="1">
          <mxGeometry x="470" y="380" width="160" height="100" as="geometry" />
        </mxCell>
        <mxCell id="qQNJZQkvxaFL41a8DRaJ-1" value="" style="strokeWidth=1;shadow=0;dashed=0;align=center;html=1;shape=mxgraph.mockup.containers.browserWindow;rSize=0;strokeColor=#666666;strokeColor2=#008cff;strokeColor3=#c4c4c4;mainText=,;recursiveResize=0;" parent="1" vertex="1">
          <mxGeometry x="40" y="1720" width="720" height="510" as="geometry" />
        </mxCell>
        <mxCell id="qQNJZQkvxaFL41a8DRaJ-2" value="" style="strokeWidth=1;shadow=0;dashed=0;align=center;html=1;shape=mxgraph.mockup.containers.anchor;fontSize=17;fontColor=#666666;align=left;whiteSpace=wrap;" parent="qQNJZQkvxaFL41a8DRaJ-1" vertex="1">
          <mxGeometry x="60" y="12" width="110" height="26" as="geometry" />
        </mxCell>
        <mxCell id="qQNJZQkvxaFL41a8DRaJ-3" value="https://www.kairos/events/allevents/event1" style="strokeWidth=1;shadow=0;dashed=0;align=center;html=1;shape=mxgraph.mockup.containers.anchor;rSize=0;fontSize=17;fontColor=#666666;align=left;" parent="qQNJZQkvxaFL41a8DRaJ-1" vertex="1">
          <mxGeometry x="130" y="60" width="250" height="26" as="geometry" />
        </mxCell>
        <mxCell id="qQNJZQkvxaFL41a8DRaJ-4" value="Description" style="html=1;shadow=0;dashed=0;shape=mxgraph.bootstrap.rrect;rSize=5;strokeColor=none;strokeWidth=1;fillColor=#6C767D;fontColor=#FFFFFF;whiteSpace=wrap;align=center;verticalAlign=middle;spacingLeft=10;fontStyle=1;fontSize=18;" parent="qQNJZQkvxaFL41a8DRaJ-1" vertex="1">
          <mxGeometry x="70" y="240" width="160" height="100" as="geometry" />
        </mxCell>
        <mxCell id="qQNJZQkvxaFL41a8DRaJ-6" value="DeadLine" style="html=1;shadow=0;dashed=0;shape=mxgraph.bootstrap.rrect;rSize=5;strokeColor=none;strokeWidth=1;fillColor=#6C767D;fontColor=#FFFFFF;whiteSpace=wrap;align=center;verticalAlign=middle;spacingLeft=10;fontStyle=1;fontSize=18;" parent="qQNJZQkvxaFL41a8DRaJ-1" vertex="1">
          <mxGeometry x="280" y="240" width="160" height="100" as="geometry" />
        </mxCell>
        <mxCell id="qQNJZQkvxaFL41a8DRaJ-7" value="Events" style="html=1;shadow=0;dashed=0;fillColor=#0085FC;strokeColor=none;fontSize=16;fontColor=#ffffff;align=left;spacing=15;" parent="qQNJZQkvxaFL41a8DRaJ-1" vertex="1">
          <mxGeometry y="110" width="720" height="40" as="geometry" />
        </mxCell>
        <mxCell id="qQNJZQkvxaFL41a8DRaJ-8" value="Reminder" style="fillColor=none;strokeColor=none;fontSize=14;fontColor=#ffffff;align=center;" parent="qQNJZQkvxaFL41a8DRaJ-7" vertex="1">
          <mxGeometry width="70" height="40" relative="1" as="geometry">
            <mxPoint x="70" as="offset" />
          </mxGeometry>
        </mxCell>
        <mxCell id="qQNJZQkvxaFL41a8DRaJ-9" value="Settings" style="fillColor=none;strokeColor=none;fontSize=14;fontColor=#FFFFFF;align=center;" parent="qQNJZQkvxaFL41a8DRaJ-7" vertex="1">
          <mxGeometry width="70" height="40" relative="1" as="geometry">
            <mxPoint x="140" as="offset" />
          </mxGeometry>
        </mxCell>
        <mxCell id="qQNJZQkvxaFL41a8DRaJ-10" value="About" style="fillColor=none;strokeColor=none;fontSize=14;fontColor=#79BFFD;align=center;" parent="qQNJZQkvxaFL41a8DRaJ-7" vertex="1">
          <mxGeometry width="80" height="40" relative="1" as="geometry">
            <mxPoint x="270" as="offset" />
          </mxGeometry>
        </mxCell>
        <mxCell id="qQNJZQkvxaFL41a8DRaJ-11" value="Search" style="html=1;shadow=0;dashed=0;shape=mxgraph.bootstrap.rrect;rSize=5;fontSize=14;fontColor=#ffffff;strokeColor=#ffffff;fillColor=none;" parent="qQNJZQkvxaFL41a8DRaJ-7" vertex="1">
          <mxGeometry x="1" width="70" height="20" relative="1" as="geometry">
            <mxPoint x="-80" y="10" as="offset" />
          </mxGeometry>
        </mxCell>
        <mxCell id="qQNJZQkvxaFL41a8DRaJ-12" value="Search" style="html=1;shadow=0;dashed=0;shape=mxgraph.bootstrap.rrect;rSize=5;fontSize=14;fontColor=#6C767D;strokeColor=#CED4DA;fillColor=#ffffff;align=left;spacing=10;" parent="qQNJZQkvxaFL41a8DRaJ-7" vertex="1">
          <mxGeometry x="1" width="180" height="20" relative="1" as="geometry">
            <mxPoint x="-270" y="10" as="offset" />
          </mxGeometry>
        </mxCell>
        <mxCell id="qQNJZQkvxaFL41a8DRaJ-13" value="&lt;font style=&quot;font-size: 46px;&quot; color=&quot;#ff0000&quot;&gt;&lt;b&gt;&amp;nbsp;Event1&lt;/b&gt;&lt;/font&gt;" style="text;html=1;strokeColor=none;fillColor=none;align=center;verticalAlign=middle;whiteSpace=wrap;rounded=0;" parent="qQNJZQkvxaFL41a8DRaJ-1" vertex="1">
          <mxGeometry x="240" y="170" width="240" height="50" as="geometry" />
        </mxCell>
        <mxCell id="qQNJZQkvxaFL41a8DRaJ-14" value="Profile" style="sketch=0;outlineConnect=0;fontColor=#232F3E;gradientColor=none;strokeColor=#232F3E;fillColor=#ffffff;dashed=0;verticalLabelPosition=bottom;verticalAlign=top;align=center;html=1;fontSize=12;fontStyle=0;aspect=fixed;shape=mxgraph.aws4.resourceIcon;resIcon=mxgraph.aws4.user;" parent="qQNJZQkvxaFL41a8DRaJ-1" vertex="1">
          <mxGeometry x="660" y="150" width="60" height="60" as="geometry" />
        </mxCell>
        <mxCell id="qQNJZQkvxaFL41a8DRaJ-15" value="Add Comment" style="html=1;shadow=0;dashed=0;shape=mxgraph.bootstrap.rrect;rSize=5;strokeColor=none;strokeWidth=1;fillColor=#6C767D;fontColor=#FFFFFF;whiteSpace=wrap;align=center;verticalAlign=middle;spacingLeft=10;fontStyle=1;fontSize=18;" parent="qQNJZQkvxaFL41a8DRaJ-1" vertex="1">
          <mxGeometry x="500" y="240" width="160" height="100" as="geometry" />
        </mxCell>
        <mxCell id="l9WyRKDIcazYYJWVCT95-1" value="Save" style="html=1;shadow=0;dashed=0;shape=mxgraph.bootstrap.rrect;rSize=5;strokeColor=none;strokeWidth=1;fillColor=#0085FC;fontColor=#FFFFFF;whiteSpace=wrap;align=center;verticalAlign=middle;spacingLeft=0;fontStyle=1;fontSize=14;spacing=5;" parent="qQNJZQkvxaFL41a8DRaJ-1" vertex="1">
          <mxGeometry x="210" y="420" width="80" height="30" as="geometry" />
        </mxCell>
        <mxCell id="mhnvUIB7BSd__KfSbPBT-1" value="Cancel" style="html=1;shadow=0;dashed=0;shape=mxgraph.bootstrap.rrect;rSize=5;strokeColor=none;strokeWidth=1;fillColor=#0085FC;fontColor=#FFFFFF;whiteSpace=wrap;align=center;verticalAlign=middle;spacingLeft=0;fontStyle=1;fontSize=14;spacing=5;" parent="qQNJZQkvxaFL41a8DRaJ-1" vertex="1">
          <mxGeometry x="430" y="420" width="80" height="30" as="geometry" />
        </mxCell>
        <mxCell id="xnazsd2dC1oozwzZjTNn-1" value="" style="strokeWidth=1;shadow=0;dashed=0;align=center;html=1;shape=mxgraph.mockup.containers.browserWindow;rSize=0;strokeColor=#666666;strokeColor2=#008cff;strokeColor3=#c4c4c4;mainText=,;recursiveResize=0;" parent="1" vertex="1">
          <mxGeometry x="40" y="2280" width="720" height="510" as="geometry" />
        </mxCell>
        <mxCell id="xnazsd2dC1oozwzZjTNn-2" value="" style="strokeWidth=1;shadow=0;dashed=0;align=center;html=1;shape=mxgraph.mockup.containers.anchor;fontSize=17;fontColor=#666666;align=left;whiteSpace=wrap;" parent="xnazsd2dC1oozwzZjTNn-1" vertex="1">
          <mxGeometry x="60" y="12" width="110" height="26" as="geometry" />
        </mxCell>
        <mxCell id="xnazsd2dC1oozwzZjTNn-3" value="https://www.kairos/admin/addevent" style="strokeWidth=1;shadow=0;dashed=0;align=center;html=1;shape=mxgraph.mockup.containers.anchor;rSize=0;fontSize=17;fontColor=#666666;align=left;" parent="xnazsd2dC1oozwzZjTNn-1" vertex="1">
          <mxGeometry x="130" y="60" width="250" height="26" as="geometry" />
        </mxCell>
        <mxCell id="xnazsd2dC1oozwzZjTNn-4" value="Description" style="html=1;shadow=0;dashed=0;shape=mxgraph.bootstrap.rrect;rSize=5;strokeColor=none;strokeWidth=1;fillColor=#6C767D;fontColor=#FFFFFF;whiteSpace=wrap;align=center;verticalAlign=middle;spacingLeft=10;fontStyle=1;fontSize=18;" parent="xnazsd2dC1oozwzZjTNn-1" vertex="1">
          <mxGeometry x="70" y="240" width="160" height="100" as="geometry" />
        </mxCell>
        <mxCell id="xnazsd2dC1oozwzZjTNn-5" value="Set DeadLine" style="html=1;shadow=0;dashed=0;shape=mxgraph.bootstrap.rrect;rSize=5;strokeColor=none;strokeWidth=1;fillColor=#6C767D;fontColor=#FFFFFF;whiteSpace=wrap;align=center;verticalAlign=middle;spacingLeft=10;fontStyle=1;fontSize=18;" parent="xnazsd2dC1oozwzZjTNn-1" vertex="1">
          <mxGeometry x="285" y="240" width="160" height="100" as="geometry" />
        </mxCell>
        <mxCell id="xnazsd2dC1oozwzZjTNn-6" value="Remarks" style="html=1;shadow=0;dashed=0;shape=mxgraph.bootstrap.rrect;rSize=5;strokeColor=none;strokeWidth=1;fillColor=#6C767D;fontColor=#FFFFFF;whiteSpace=wrap;align=center;verticalAlign=middle;spacingLeft=10;fontStyle=1;fontSize=18;" parent="xnazsd2dC1oozwzZjTNn-1" vertex="1">
          <mxGeometry x="500" y="240" width="160" height="100" as="geometry" />
        </mxCell>
        <mxCell id="xnazsd2dC1oozwzZjTNn-7" value="Add Event" style="html=1;shadow=0;dashed=0;fillColor=#0085FC;strokeColor=none;fontSize=16;fontColor=#ffffff;align=left;spacing=15;" parent="xnazsd2dC1oozwzZjTNn-1" vertex="1">
          <mxGeometry y="110" width="720" height="40" as="geometry" />
        </mxCell>
        <mxCell id="xnazsd2dC1oozwzZjTNn-8" value="View" style="fillColor=none;strokeColor=none;fontSize=14;fontColor=#ffffff;align=center;" parent="xnazsd2dC1oozwzZjTNn-7" vertex="1">
          <mxGeometry width="70" height="40" relative="1" as="geometry">
            <mxPoint x="100" as="offset" />
          </mxGeometry>
        </mxCell>
        <mxCell id="xnazsd2dC1oozwzZjTNn-9" value="Settings" style="fillColor=none;strokeColor=none;fontSize=14;fontColor=#FFFFFF;align=center;" parent="xnazsd2dC1oozwzZjTNn-7" vertex="1">
          <mxGeometry width="70" height="40" relative="1" as="geometry">
            <mxPoint x="170" as="offset" />
          </mxGeometry>
        </mxCell>
        <mxCell id="xnazsd2dC1oozwzZjTNn-11" value="Search" style="html=1;shadow=0;dashed=0;shape=mxgraph.bootstrap.rrect;rSize=5;fontSize=14;fontColor=#ffffff;strokeColor=#ffffff;fillColor=none;" parent="xnazsd2dC1oozwzZjTNn-7" vertex="1">
          <mxGeometry x="1" width="70" height="20" relative="1" as="geometry">
            <mxPoint x="-80" y="10" as="offset" />
          </mxGeometry>
        </mxCell>
        <mxCell id="xnazsd2dC1oozwzZjTNn-12" value="Search" style="html=1;shadow=0;dashed=0;shape=mxgraph.bootstrap.rrect;rSize=5;fontSize=14;fontColor=#6C767D;strokeColor=#CED4DA;fillColor=#ffffff;align=left;spacing=10;" parent="xnazsd2dC1oozwzZjTNn-7" vertex="1">
          <mxGeometry x="1" width="180" height="20" relative="1" as="geometry">
            <mxPoint x="-270" y="10" as="offset" />
          </mxGeometry>
        </mxCell>
        <mxCell id="xnazsd2dC1oozwzZjTNn-13" value="&lt;font style=&quot;font-size: 46px;&quot; color=&quot;#ff0000&quot;&gt;&lt;b&gt;Add Event&lt;/b&gt;&lt;/font&gt;" style="text;html=1;strokeColor=none;fillColor=none;align=center;verticalAlign=middle;whiteSpace=wrap;rounded=0;" parent="xnazsd2dC1oozwzZjTNn-1" vertex="1">
          <mxGeometry x="270" y="170" width="230" height="50" as="geometry" />
        </mxCell>
        <mxCell id="xnazsd2dC1oozwzZjTNn-14" value="Profile" style="sketch=0;outlineConnect=0;fontColor=#232F3E;gradientColor=none;strokeColor=#232F3E;fillColor=#ffffff;dashed=0;verticalLabelPosition=bottom;verticalAlign=top;align=center;html=1;fontSize=12;fontStyle=0;aspect=fixed;shape=mxgraph.aws4.resourceIcon;resIcon=mxgraph.aws4.user;" parent="xnazsd2dC1oozwzZjTNn-1" vertex="1">
          <mxGeometry x="660" y="150" width="60" height="60" as="geometry" />
        </mxCell>
        <mxCell id="xnazsd2dC1oozwzZjTNn-15" value="Assign" style="html=1;shadow=0;dashed=0;shape=mxgraph.bootstrap.rrect;rSize=5;strokeColor=none;strokeWidth=1;fillColor=#0085FC;fontColor=#FFFFFF;whiteSpace=wrap;align=center;verticalAlign=middle;spacingLeft=0;fontStyle=1;fontSize=14;spacing=5;" parent="xnazsd2dC1oozwzZjTNn-1" vertex="1">
          <mxGeometry x="215" y="400" width="80" height="30" as="geometry" />
        </mxCell>
        <mxCell id="xnazsd2dC1oozwzZjTNn-32" value="Cancel" style="html=1;shadow=0;dashed=0;shape=mxgraph.bootstrap.rrect;rSize=5;strokeColor=none;strokeWidth=1;fillColor=#0085FC;fontColor=#FFFFFF;whiteSpace=wrap;align=center;verticalAlign=middle;spacingLeft=0;fontStyle=1;fontSize=14;spacing=5;" parent="xnazsd2dC1oozwzZjTNn-1" vertex="1">
          <mxGeometry x="445" y="400" width="80" height="30" as="geometry" />
        </mxCell>
        <mxCell id="dZ3ATA0XE73AY-LIBB5c-1" value="" style="strokeWidth=1;shadow=0;dashed=0;align=center;html=1;shape=mxgraph.mockup.containers.browserWindow;rSize=0;strokeColor=#666666;strokeColor2=#008cff;strokeColor3=#c4c4c4;mainText=,;recursiveResize=0;" parent="1" vertex="1">
          <mxGeometry x="40" y="2840" width="720" height="510" as="geometry" />
        </mxCell>
        <mxCell id="dZ3ATA0XE73AY-LIBB5c-2" value="" style="strokeWidth=1;shadow=0;dashed=0;align=center;html=1;shape=mxgraph.mockup.containers.anchor;fontSize=17;fontColor=#666666;align=left;whiteSpace=wrap;" parent="dZ3ATA0XE73AY-LIBB5c-1" vertex="1">
          <mxGeometry x="60" y="12" width="110" height="26" as="geometry" />
        </mxCell>
        <mxCell id="dZ3ATA0XE73AY-LIBB5c-3" value="https://www.kairos/signup" style="strokeWidth=1;shadow=0;dashed=0;align=center;html=1;shape=mxgraph.mockup.containers.anchor;rSize=0;fontSize=17;fontColor=#666666;align=left;" parent="dZ3ATA0XE73AY-LIBB5c-1" vertex="1">
          <mxGeometry x="130" y="60" width="250" height="26" as="geometry" />
        </mxCell>
        <mxCell id="dZ3ATA0XE73AY-LIBB5c-4" value="&lt;font color=&quot;#ff0000&quot; style=&quot;font-size: 49px;&quot;&gt;&lt;b style=&quot;font-size: 49px;&quot;&gt;Kairos&lt;/b&gt;&lt;/font&gt;" style="text;html=1;strokeColor=none;fillColor=none;align=center;verticalAlign=middle;whiteSpace=wrap;rounded=0;fontSize=49;" parent="dZ3ATA0XE73AY-LIBB5c-1" vertex="1">
          <mxGeometry x="240" y="130" width="240" height="30" as="geometry" />
        </mxCell>
        <mxCell id="dZ3ATA0XE73AY-LIBB5c-5" value="" style="strokeWidth=1;shadow=0;dashed=0;align=center;html=1;shape=mxgraph.mockup.forms.rrect;rSize=0;strokeColor=#999999;fillColor=#ffffff;" parent="dZ3ATA0XE73AY-LIBB5c-1" vertex="1">
          <mxGeometry x="260" y="190" width="200" height="300" as="geometry" />
        </mxCell>
        <mxCell id="dZ3ATA0XE73AY-LIBB5c-6" value="Sign up" style="strokeWidth=1;shadow=0;dashed=0;align=center;html=1;shape=mxgraph.mockup.forms.anchor;fontSize=12;fontColor=#666666;align=left;resizeWidth=1;spacingLeft=0;" parent="dZ3ATA0XE73AY-LIBB5c-5" vertex="1">
          <mxGeometry width="100" height="20" relative="1" as="geometry">
            <mxPoint x="10" y="10" as="offset" />
          </mxGeometry>
        </mxCell>
        <mxCell id="dZ3ATA0XE73AY-LIBB5c-7" value="" style="shape=line;strokeColor=#ddeeff;strokeWidth=2;html=1;resizeWidth=1;" parent="dZ3ATA0XE73AY-LIBB5c-5" vertex="1">
          <mxGeometry width="180" height="10" relative="1" as="geometry">
            <mxPoint x="10" y="30" as="offset" />
          </mxGeometry>
        </mxCell>
        <mxCell id="dZ3ATA0XE73AY-LIBB5c-8" value="User Name:" style="strokeWidth=1;shadow=0;dashed=0;align=center;html=1;shape=mxgraph.mockup.forms.anchor;fontSize=12;fontColor=#666666;align=left;resizeWidth=1;spacingLeft=0;" parent="dZ3ATA0XE73AY-LIBB5c-5" vertex="1">
          <mxGeometry width="100" height="20" relative="1" as="geometry">
            <mxPoint x="10" y="40" as="offset" />
          </mxGeometry>
        </mxCell>
        <mxCell id="dZ3ATA0XE73AY-LIBB5c-9" value="johndoe" style="strokeWidth=1;shadow=0;dashed=0;align=center;html=1;shape=mxgraph.mockup.forms.rrect;rSize=0;strokeColor=#999999;fontColor=#666666;align=left;spacingLeft=5;resizeWidth=1;" parent="dZ3ATA0XE73AY-LIBB5c-5" vertex="1">
          <mxGeometry width="150" height="25" relative="1" as="geometry">
            <mxPoint x="10" y="60" as="offset" />
          </mxGeometry>
        </mxCell>
        <mxCell id="dZ3ATA0XE73AY-LIBB5c-10" value="Password:" style="strokeWidth=1;shadow=0;dashed=0;align=center;html=1;shape=mxgraph.mockup.forms.anchor;fontSize=12;fontColor=#666666;align=left;resizeWidth=1;spacingLeft=0;" parent="dZ3ATA0XE73AY-LIBB5c-5" vertex="1">
          <mxGeometry width="100" height="20" relative="1" as="geometry">
            <mxPoint x="10" y="95" as="offset" />
          </mxGeometry>
        </mxCell>
        <mxCell id="dZ3ATA0XE73AY-LIBB5c-11" value="********" style="strokeWidth=1;shadow=0;dashed=0;align=center;html=1;shape=mxgraph.mockup.forms.rrect;rSize=0;strokeColor=#999999;fontColor=#666666;align=left;spacingLeft=5;resizeWidth=1;" parent="dZ3ATA0XE73AY-LIBB5c-5" vertex="1">
          <mxGeometry width="150" height="25" relative="1" as="geometry">
            <mxPoint x="10" y="115" as="offset" />
          </mxGeometry>
        </mxCell>
        <mxCell id="dZ3ATA0XE73AY-LIBB5c-13" value="" style="strokeWidth=1;shadow=0;dashed=0;align=center;html=1;shape=mxgraph.mockup.forms.anchor;fontSize=12;fontColor=#9999ff;align=left;spacingLeft=0;fontStyle=4;resizeWidth=1;" parent="dZ3ATA0XE73AY-LIBB5c-5" vertex="1">
          <mxGeometry y="1" width="150" height="20" relative="1" as="geometry">
            <mxPoint x="10" y="-110" as="offset" />
          </mxGeometry>
        </mxCell>
        <mxCell id="dZ3ATA0XE73AY-LIBB5c-14" value="" style="shape=line;strokeColor=#ddeeff;strokeWidth=2;html=1;resizeWidth=1;" parent="dZ3ATA0XE73AY-LIBB5c-5" vertex="1">
          <mxGeometry y="1" width="180" height="10" relative="1" as="geometry">
            <mxPoint x="10" y="-90" as="offset" />
          </mxGeometry>
        </mxCell>
        <mxCell id="dZ3ATA0XE73AY-LIBB5c-15" value="" style="strokeWidth=1;shadow=0;dashed=0;align=center;html=1;shape=mxgraph.mockup.forms.anchor;fontSize=12;fontColor=#666666;align=left;spacingLeft=0;resizeWidth=1;" parent="dZ3ATA0XE73AY-LIBB5c-5" vertex="1">
          <mxGeometry y="1" width="150" height="20" relative="1" as="geometry">
            <mxPoint x="10" y="-70" as="offset" />
          </mxGeometry>
        </mxCell>
        <mxCell id="dZ3ATA0XE73AY-LIBB5c-16" value="SIGN UP" style="strokeWidth=1;shadow=0;dashed=0;align=center;html=1;shape=mxgraph.mockup.forms.rrect;rSize=5;strokeColor=none;fontColor=#ffffff;fillColor=#66bbff;fontSize=16;fontStyle=1;" parent="dZ3ATA0XE73AY-LIBB5c-5" vertex="1">
          <mxGeometry y="1" width="80" height="30" relative="1" as="geometry">
            <mxPoint x="20" y="-50" as="offset" />
          </mxGeometry>
        </mxCell>
        <mxCell id="dZ3ATA0XE73AY-LIBB5c-18" value="********" style="strokeWidth=1;shadow=0;dashed=0;align=center;html=1;shape=mxgraph.mockup.forms.rrect;rSize=0;strokeColor=#999999;fontColor=#666666;align=left;spacingLeft=5;resizeWidth=1;" parent="dZ3ATA0XE73AY-LIBB5c-5" vertex="1">
          <mxGeometry x="10" y="180" width="150" height="25" as="geometry" />
        </mxCell>
        <mxCell id="dZ3ATA0XE73AY-LIBB5c-19" value="&lt;font color=&quot;#666666&quot;&gt;Confirm Password:&lt;/font&gt;" style="text;html=1;strokeColor=none;fillColor=none;align=center;verticalAlign=middle;whiteSpace=wrap;rounded=0;" parent="dZ3ATA0XE73AY-LIBB5c-5" vertex="1">
          <mxGeometry y="150" width="120" height="30" as="geometry" />
        </mxCell>
        <mxCell id="OAv6Zjh-KKCjQQZ2udGc-1" value="" style="strokeWidth=1;shadow=0;dashed=0;align=center;html=1;shape=mxgraph.mockup.containers.browserWindow;rSize=0;strokeColor=#666666;strokeColor2=#008cff;strokeColor3=#c4c4c4;mainText=,;recursiveResize=0;" parent="1" vertex="1">
          <mxGeometry x="40" y="3400" width="720" height="510" as="geometry" />
        </mxCell>
        <mxCell id="OAv6Zjh-KKCjQQZ2udGc-2" value="" style="strokeWidth=1;shadow=0;dashed=0;align=center;html=1;shape=mxgraph.mockup.containers.anchor;fontSize=17;fontColor=#666666;align=left;whiteSpace=wrap;" parent="OAv6Zjh-KKCjQQZ2udGc-1" vertex="1">
          <mxGeometry x="60" y="12" width="110" height="26" as="geometry" />
        </mxCell>
        <mxCell id="OAv6Zjh-KKCjQQZ2udGc-3" value="https://www.kairos/admin/view" style="strokeWidth=1;shadow=0;dashed=0;align=center;html=1;shape=mxgraph.mockup.containers.anchor;rSize=0;fontSize=17;fontColor=#666666;align=left;" parent="OAv6Zjh-KKCjQQZ2udGc-1" vertex="1">
          <mxGeometry x="130" y="60" width="250" height="26" as="geometry" />
        </mxCell>
        <mxCell id="OAv6Zjh-KKCjQQZ2udGc-4" value="Event" style="html=1;shadow=0;dashed=0;shape=mxgraph.bootstrap.rrect;rSize=5;strokeColor=none;strokeWidth=1;fillColor=#6C767D;fontColor=#FFFFFF;whiteSpace=wrap;align=center;verticalAlign=middle;spacingLeft=10;fontStyle=1;fontSize=18;" parent="OAv6Zjh-KKCjQQZ2udGc-1" vertex="1">
          <mxGeometry x="70" y="240" width="160" height="100" as="geometry" />
        </mxCell>
        <mxCell id="OAv6Zjh-KKCjQQZ2udGc-5" value="Time" style="html=1;shadow=0;dashed=0;shape=mxgraph.bootstrap.rrect;rSize=5;strokeColor=none;strokeWidth=1;fillColor=#6C767D;fontColor=#FFFFFF;whiteSpace=wrap;align=center;verticalAlign=middle;spacingLeft=10;fontStyle=1;fontSize=18;" parent="OAv6Zjh-KKCjQQZ2udGc-1" vertex="1">
          <mxGeometry x="285" y="240" width="160" height="100" as="geometry" />
        </mxCell>
        <mxCell id="OAv6Zjh-KKCjQQZ2udGc-6" value="Progress" style="html=1;shadow=0;dashed=0;shape=mxgraph.bootstrap.rrect;rSize=5;strokeColor=none;strokeWidth=1;fillColor=#6C767D;fontColor=#FFFFFF;whiteSpace=wrap;align=center;verticalAlign=middle;spacingLeft=10;fontStyle=1;fontSize=18;" parent="OAv6Zjh-KKCjQQZ2udGc-1" vertex="1">
          <mxGeometry x="500" y="240" width="160" height="100" as="geometry" />
        </mxCell>
        <mxCell id="OAv6Zjh-KKCjQQZ2udGc-7" value="Add Event" style="html=1;shadow=0;dashed=0;fillColor=#0085FC;strokeColor=none;fontSize=16;fontColor=#ffffff;align=left;spacing=15;" parent="OAv6Zjh-KKCjQQZ2udGc-1" vertex="1">
          <mxGeometry y="110" width="720" height="40" as="geometry" />
        </mxCell>
        <mxCell id="OAv6Zjh-KKCjQQZ2udGc-8" value="View" style="fillColor=none;strokeColor=none;fontSize=14;fontColor=#ffffff;align=center;" parent="OAv6Zjh-KKCjQQZ2udGc-7" vertex="1">
          <mxGeometry width="70" height="40" relative="1" as="geometry">
            <mxPoint x="100" as="offset" />
          </mxGeometry>
        </mxCell>
        <mxCell id="OAv6Zjh-KKCjQQZ2udGc-9" value="Settings" style="fillColor=none;strokeColor=none;fontSize=14;fontColor=#FFFFFF;align=center;" parent="OAv6Zjh-KKCjQQZ2udGc-7" vertex="1">
          <mxGeometry width="70" height="40" relative="1" as="geometry">
            <mxPoint x="170" as="offset" />
          </mxGeometry>
        </mxCell>
        <mxCell id="OAv6Zjh-KKCjQQZ2udGc-10" value="Search" style="html=1;shadow=0;dashed=0;shape=mxgraph.bootstrap.rrect;rSize=5;fontSize=14;fontColor=#ffffff;strokeColor=#ffffff;fillColor=none;" parent="OAv6Zjh-KKCjQQZ2udGc-7" vertex="1">
          <mxGeometry x="1" width="70" height="20" relative="1" as="geometry">
            <mxPoint x="-80" y="10" as="offset" />
          </mxGeometry>
        </mxCell>
        <mxCell id="OAv6Zjh-KKCjQQZ2udGc-11" value="Search" style="html=1;shadow=0;dashed=0;shape=mxgraph.bootstrap.rrect;rSize=5;fontSize=14;fontColor=#6C767D;strokeColor=#CED4DA;fillColor=#ffffff;align=left;spacing=10;" parent="OAv6Zjh-KKCjQQZ2udGc-7" vertex="1">
          <mxGeometry x="1" width="180" height="20" relative="1" as="geometry">
            <mxPoint x="-270" y="10" as="offset" />
          </mxGeometry>
        </mxCell>
        <mxCell id="OAv6Zjh-KKCjQQZ2udGc-12" value="&lt;font color=&quot;#ff0000&quot;&gt;&lt;span style=&quot;font-size: 46px;&quot;&gt;&lt;b&gt;View&lt;/b&gt;&lt;/span&gt;&lt;/font&gt;" style="text;html=1;strokeColor=none;fillColor=none;align=center;verticalAlign=middle;whiteSpace=wrap;rounded=0;" parent="OAv6Zjh-KKCjQQZ2udGc-1" vertex="1">
          <mxGeometry x="270" y="170" width="230" height="50" as="geometry" />
        </mxCell>
        <mxCell id="OAv6Zjh-KKCjQQZ2udGc-13" value="Profile" style="sketch=0;outlineConnect=0;fontColor=#232F3E;gradientColor=none;strokeColor=#232F3E;fillColor=#ffffff;dashed=0;verticalLabelPosition=bottom;verticalAlign=top;align=center;html=1;fontSize=12;fontStyle=0;aspect=fixed;shape=mxgraph.aws4.resourceIcon;resIcon=mxgraph.aws4.user;" parent="OAv6Zjh-KKCjQQZ2udGc-1" vertex="1">
          <mxGeometry x="660" y="150" width="60" height="60" as="geometry" />
        </mxCell>
        <mxCell id="OAv6Zjh-KKCjQQZ2udGc-15" value="Submit" style="html=1;shadow=0;dashed=0;shape=mxgraph.bootstrap.rrect;rSize=5;strokeColor=none;strokeWidth=1;fillColor=#0085FC;fontColor=#FFFFFF;whiteSpace=wrap;align=center;verticalAlign=middle;spacingLeft=0;fontStyle=1;fontSize=14;spacing=5;" parent="OAv6Zjh-KKCjQQZ2udGc-1" vertex="1">
          <mxGeometry x="325" y="410" width="80" height="30" as="geometry" />
        </mxCell>
        <mxCell id="OAv6Zjh-KKCjQQZ2udGc-16" value="" style="strokeWidth=1;shadow=0;dashed=0;align=center;html=1;shape=mxgraph.mockup.containers.browserWindow;rSize=0;strokeColor=#666666;strokeColor2=#008cff;strokeColor3=#c4c4c4;mainText=,;recursiveResize=0;" parent="1" vertex="1">
          <mxGeometry x="40" y="3960" width="720" height="510" as="geometry" />
        </mxCell>
        <mxCell id="OAv6Zjh-KKCjQQZ2udGc-17" value="Page 1" style="strokeWidth=1;shadow=0;dashed=0;align=center;html=1;shape=mxgraph.mockup.containers.anchor;fontSize=17;fontColor=#666666;align=left;whiteSpace=wrap;" parent="OAv6Zjh-KKCjQQZ2udGc-16" vertex="1">
          <mxGeometry x="60" y="12" width="110" height="26" as="geometry" />
        </mxCell>
        <mxCell id="OAv6Zjh-KKCjQQZ2udGc-18" value="https://www.kairos/settings" style="strokeWidth=1;shadow=0;dashed=0;align=center;html=1;shape=mxgraph.mockup.containers.anchor;rSize=0;fontSize=17;fontColor=#666666;align=left;" parent="OAv6Zjh-KKCjQQZ2udGc-16" vertex="1">
          <mxGeometry x="130" y="60" width="250" height="26" as="geometry" />
        </mxCell>
        <mxCell id="OAv6Zjh-KKCjQQZ2udGc-19" value="Account" style="html=1;shadow=0;dashed=0;shape=mxgraph.bootstrap.rrect;rSize=5;strokeColor=none;strokeWidth=1;fillColor=#6C767D;fontColor=#FFFFFF;whiteSpace=wrap;align=center;verticalAlign=middle;spacingLeft=10;fontStyle=1;fontSize=18;" parent="OAv6Zjh-KKCjQQZ2udGc-16" vertex="1">
          <mxGeometry x="70" y="240" width="160" height="100" as="geometry" />
        </mxCell>
        <mxCell id="OAv6Zjh-KKCjQQZ2udGc-20" value="Time&amp;amp;&lt;br&gt;Language" style="html=1;shadow=0;dashed=0;shape=mxgraph.bootstrap.rrect;rSize=5;strokeColor=none;strokeWidth=1;fillColor=#6C767D;fontColor=#FFFFFF;whiteSpace=wrap;align=center;verticalAlign=middle;spacingLeft=10;fontStyle=1;fontSize=18;" parent="OAv6Zjh-KKCjQQZ2udGc-16" vertex="1">
          <mxGeometry x="285" y="240" width="160" height="100" as="geometry" />
        </mxCell>
        <mxCell id="OAv6Zjh-KKCjQQZ2udGc-21" value="Privacy" style="html=1;shadow=0;dashed=0;shape=mxgraph.bootstrap.rrect;rSize=5;strokeColor=none;strokeWidth=1;fillColor=#6C767D;fontColor=#FFFFFF;whiteSpace=wrap;align=center;verticalAlign=middle;spacingLeft=10;fontStyle=1;fontSize=18;" parent="OAv6Zjh-KKCjQQZ2udGc-16" vertex="1">
          <mxGeometry x="500" y="240" width="160" height="100" as="geometry" />
        </mxCell>
        <mxCell id="OAv6Zjh-KKCjQQZ2udGc-22" value="Add Event" style="html=1;shadow=0;dashed=0;fillColor=#0085FC;strokeColor=none;fontSize=16;fontColor=#ffffff;align=left;spacing=15;" parent="OAv6Zjh-KKCjQQZ2udGc-16" vertex="1">
          <mxGeometry y="110" width="720" height="40" as="geometry" />
        </mxCell>
        <mxCell id="OAv6Zjh-KKCjQQZ2udGc-23" value="View" style="fillColor=none;strokeColor=none;fontSize=14;fontColor=#ffffff;align=center;" parent="OAv6Zjh-KKCjQQZ2udGc-22" vertex="1">
          <mxGeometry width="70" height="40" relative="1" as="geometry">
            <mxPoint x="100" as="offset" />
          </mxGeometry>
        </mxCell>
        <mxCell id="OAv6Zjh-KKCjQQZ2udGc-24" value="Settings" style="fillColor=none;strokeColor=none;fontSize=14;fontColor=#FFFFFF;align=center;" parent="OAv6Zjh-KKCjQQZ2udGc-22" vertex="1">
          <mxGeometry width="70" height="40" relative="1" as="geometry">
            <mxPoint x="170" as="offset" />
          </mxGeometry>
        </mxCell>
        <mxCell id="OAv6Zjh-KKCjQQZ2udGc-25" value="Search" style="html=1;shadow=0;dashed=0;shape=mxgraph.bootstrap.rrect;rSize=5;fontSize=14;fontColor=#ffffff;strokeColor=#ffffff;fillColor=none;" parent="OAv6Zjh-KKCjQQZ2udGc-22" vertex="1">
          <mxGeometry x="1" width="70" height="20" relative="1" as="geometry">
            <mxPoint x="-80" y="10" as="offset" />
          </mxGeometry>
        </mxCell>
        <mxCell id="OAv6Zjh-KKCjQQZ2udGc-26" value="Search" style="html=1;shadow=0;dashed=0;shape=mxgraph.bootstrap.rrect;rSize=5;fontSize=14;fontColor=#6C767D;strokeColor=#CED4DA;fillColor=#ffffff;align=left;spacing=10;" parent="OAv6Zjh-KKCjQQZ2udGc-22" vertex="1">
          <mxGeometry x="1" width="180" height="20" relative="1" as="geometry">
            <mxPoint x="-270" y="10" as="offset" />
          </mxGeometry>
        </mxCell>
        <mxCell id="OAv6Zjh-KKCjQQZ2udGc-27" value="&lt;font color=&quot;#ff0000&quot;&gt;&lt;span style=&quot;font-size: 46px;&quot;&gt;&lt;b&gt;Settings&lt;/b&gt;&lt;/span&gt;&lt;/font&gt;" style="text;html=1;strokeColor=none;fillColor=none;align=center;verticalAlign=middle;whiteSpace=wrap;rounded=0;" parent="OAv6Zjh-KKCjQQZ2udGc-16" vertex="1">
          <mxGeometry x="270" y="170" width="230" height="50" as="geometry" />
        </mxCell>
        <mxCell id="OAv6Zjh-KKCjQQZ2udGc-28" value="Profile" style="sketch=0;outlineConnect=0;fontColor=#232F3E;gradientColor=none;strokeColor=#232F3E;fillColor=#ffffff;dashed=0;verticalLabelPosition=bottom;verticalAlign=top;align=center;html=1;fontSize=12;fontStyle=0;aspect=fixed;shape=mxgraph.aws4.resourceIcon;resIcon=mxgraph.aws4.user;" parent="OAv6Zjh-KKCjQQZ2udGc-16" vertex="1">
          <mxGeometry x="660" y="150" width="60" height="60" as="geometry" />
        </mxCell>
        <mxCell id="OAv6Zjh-KKCjQQZ2udGc-29" value="Submit" style="html=1;shadow=0;dashed=0;shape=mxgraph.bootstrap.rrect;rSize=5;strokeColor=none;strokeWidth=1;fillColor=#0085FC;fontColor=#FFFFFF;whiteSpace=wrap;align=center;verticalAlign=middle;spacingLeft=0;fontStyle=1;fontSize=14;spacing=5;" parent="OAv6Zjh-KKCjQQZ2udGc-16" vertex="1">
          <mxGeometry x="325" y="410" width="80" height="30" as="geometry" />
        </mxCell>
      </root>
    </mxGraphModel>
  </diagram>
</mxfile>
